<?xml version="1.0" standalone="no"?>
<!DOCTYPE svg PUBLIC "-//W3C//DTD SVG 20010904//EN"
 "http://www.w3.org/TR/2001/REC-SVG-20010904/DTD/svg10.dtd">
<svg version="1.0" xmlns="http://www.w3.org/2000/svg"
 width="700.000000pt" height="700.000000pt" viewBox="0 0 700.000000 700.000000"
 preserveAspectRatio="xMidYMid meet">
<metadata>
Created by potrace 1.11, written by Peter Selinger 2001-2013
</metadata>
<g transform="translate(0.000000,700.000000) scale(0.100000,-0.100000)"
fill="#000000" stroke="none">
<path d="M3298 6995 c-2 -1 -41 -5 -88 -9 -100 -7 -225 -22 -295 -36 -27 -5
-61 -12 -75 -14 -198 -36 -503 -126 -657 -193 -21 -9 -40 -17 -43 -18 -41 -12
-265 -123 -360 -178 -47 -28 -94 -55 -105 -61 -136 -76 -386 -265 -544 -411
-372 -344 -680 -785 -868 -1245 -61 -149 -145 -409 -168 -518 -2 -9 -8 -37
-14 -62 -11 -49 -13 -63 -35 -195 -33 -199 -40 -300 -40 -550 -1 -322 22 -521
90 -815 23 -100 85 -313 103 -355 5 -11 14 -36 21 -55 7 -19 16 -44 21 -55 5
-11 17 -43 28 -71 29 -77 129 -279 178 -362 24 -41 43 -75 43 -77 0 -2 30 -50
67 -107 195 -303 417 -552 729 -818 55 -48 219 -167 304 -222 441 -286 971
-483 1435 -534 22 -2 49 -6 60 -9 120 -26 679 -26 836 0 13 2 71 11 129 20 86
13 177 31 300 60 124 28 358 107 513 172 117 49 344 162 388 194 15 10 30 19
34 19 24 0 373 250 495 355 111 96 292 277 365 365 21 25 41 47 44 50 4 3 45
55 91 115 250 329 436 689 559 1080 56 178 106 398 126 555 13 106 18 136 22
155 3 11 6 135 8 275 3 227 -1 328 -19 465 -3 22 -8 61 -11 86 -3 25 -7 54 -9
65 -2 10 -11 60 -21 109 -125 672 -470 1320 -961 1809 -140 141 -243 228 -404
347 -63 47 -129 94 -147 105 -18 10 -74 44 -125 75 -318 193 -711 348 -1075
424 -99 20 -244 43 -393 60 -54 7 -526 16 -532 10z"/>
</g>
</svg>
